<?xml version="1.0" encoding="UTF-8"?>
<svg xmlns="http://www.w3.org/2000/svg" xmlns:xlink="http://www.w3.org/1999/xlink" width="36px" height="36px" viewBox="0 0 36 36" version="1.1">
<defs>
<clipPath id="clip1">
  <path d="M 8 20 L 24 20 L 24 34 L 8 34 Z M 8 20 "/>
</clipPath>
<clipPath id="clip2">
  <path d="M 13.136719 20.886719 C 11.625 20.421875 8.109375 20.195312 8.085938 21.320312 C 8.019531 24.285156 13.40625 33.375 17.980469 33.550781 C 20.316406 33.644531 23.25 31.046875 23.511719 28.703125 C 23.757812 26.527344 22.726562 23.820312 13.136719 20.886719 Z M 13.136719 20.886719 "/>
</clipPath>
<clipPath id="clip3">
  <path d="M 7 13 L 28 13 L 28 21 L 7 21 Z M 7 13 "/>
</clipPath>
<clipPath id="clip4">
  <path d="M 18 14.769531 C 25.648438 14.851562 27.164062 19.53125 27.164062 19.53125 C 26.742188 19.152344 26.367188 18.777344 25.027344 18.441406 C 24.851562 18.398438 23.453125 20.292969 21.230469 20.785156 C 20.824219 20.875 23.085938 20.503906 23.542969 18 C 23.265625 17.90625 22.515625 17.585938 21.347656 17.429688 C 21.40625 18.414062 20.457031 19.15625 19.496094 19.023438 C 18.742188 18.917969 17.742188 18.097656 18.269531 16.957031 C 17.722656 16.84375 16.804688 16.78125 15.828125 16.78125 C 15.261719 18.148438 16.308594 19.402344 16.199219 19.308594 C 14.753906 18.089844 14.3125 16.703125 14.3125 16.703125 C 10.496094 16.28125 7.695312 13.003906 7.695312 13.003906 C 7.695312 13.003906 9.171875 14.675781 18 14.769531 Z M 18 14.769531 "/>
</clipPath>
<clipPath id="clip5">
  <path d="M 5 2 L 31 2 L 31 20 L 5 20 Z M 5 2 "/>
</clipPath>
<clipPath id="clip6">
  <path d="M 30.386719 14.640625 C 29.664062 18.542969 29.308594 19.023438 29.308594 19.023438 C 28.515625 12.183594 18.058594 12.496094 18.058594 12.496094 C 4.144531 12.628906 5.15625 7.164062 5.15625 7.164062 C 5.15625 7.164062 16.46875 2.847656 17.980469 2.847656 C 19.398438 2.847656 30.726562 7.164062 30.726562 7.164062 C 30.78125 8.789062 31.011719 11.273438 30.386719 14.640625 Z M 30.386719 14.640625 "/>
</clipPath>
</defs>
<g id="surface1">
<path style=" stroke:none;fill-rule:evenodd;fill:rgb(100%,100%,100%);fill-opacity:1;" d="M 33.140625 5.503906 C 33.140625 5.503906 20.027344 0.742188 17.980469 0.726562 C 15.894531 0.714844 2.859375 5.503906 2.859375 5.503906 C 2.820312 8.722656 3.34375 14.453125 4.511719 18.378906 C 7.59375 28.722656 13.75 35.300781 17.980469 35.273438 C 21.945312 35.242188 28.3125 28.640625 31.53125 18.378906 C 32.796875 14.351562 33.171875 8.472656 33.140625 5.503906 Z M 33.140625 5.503906 "/>
<g clip-path="url(#clip1)" clip-rule="nonzero">
<g clip-path="url(#clip2)" clip-rule="evenodd">
<rect x="0" y="0" width="36" height="36" style="fill:rgb(15.686275%,15.686275%,15.686275%);fill-opacity:1;stroke:none;"/>
</g>
</g>
<path style=" stroke:none;fill-rule:evenodd;fill:rgb(100%,100%,100%);fill-opacity:1;" d="M 18 14.769531 C 25.648438 14.851562 27.164062 19.53125 27.164062 19.53125 C 26.742188 19.152344 26.367188 18.777344 25.027344 18.441406 C 24.851562 18.398438 23.453125 20.292969 21.230469 20.785156 C 20.824219 20.875 23.085938 20.503906 23.542969 18 C 23.265625 17.90625 22.515625 17.585938 21.347656 17.429688 C 21.40625 18.414062 20.457031 19.15625 19.496094 19.023438 C 18.742188 18.917969 17.742188 18.097656 18.269531 16.957031 C 17.722656 16.84375 16.804688 16.78125 15.828125 16.78125 C 15.261719 18.148438 16.308594 19.402344 16.199219 19.308594 C 14.753906 18.089844 14.3125 16.703125 14.3125 16.703125 C 10.496094 16.28125 7.695312 13.003906 7.695312 13.003906 C 7.695312 13.003906 9.171875 14.675781 18 14.769531 Z M 18 14.769531 "/>
<g clip-path="url(#clip3)" clip-rule="nonzero">
<g clip-path="url(#clip4)" clip-rule="evenodd">
<rect x="0" y="0" width="36" height="36" style="fill:rgb(15.686275%,15.686275%,15.686275%);fill-opacity:1;stroke:none;"/>
</g>
</g>
<path style=" stroke:none;fill-rule:evenodd;fill:rgb(100%,100%,100%);fill-opacity:1;" d="M 30.386719 14.640625 C 29.664062 18.542969 29.308594 19.023438 29.308594 19.023438 C 28.515625 12.183594 18.058594 12.496094 18.058594 12.496094 C 4.144531 12.628906 5.15625 7.164062 5.15625 7.164062 C 5.15625 7.164062 16.46875 2.847656 17.980469 2.847656 C 19.398438 2.847656 30.726562 7.164062 30.726562 7.164062 C 30.78125 8.789062 31.011719 11.273438 30.386719 14.640625 Z M 30.386719 14.640625 "/>
<g clip-path="url(#clip5)" clip-rule="nonzero">
<g clip-path="url(#clip6)" clip-rule="evenodd">
<rect x="0" y="0" width="36" height="36" style="fill:rgb(15.686275%,15.686275%,15.686275%);fill-opacity:1;stroke:none;"/>
</g>
</g>
</g>
</svg>
